# xmcd
#
# Track frame offsets: 
#        150
#        9450
#        28173
#        47352
#        69918
#        97204
#        114431
#        132221
#        152259
#        170670
#        195092
#        214049
#        242135
#        267039
#        288606
#
# Disc length: 4100 seconds
#
# Revision: 0
# Processed by: cddbd v1.5.2PL0 Copyright (c) Steve Scherf et al.
# Submitted via: ExactAudioCopy v0.99pb4
#
DISCID=c510020f
DTITLE=Ray Robinson - What is it
DYEAR=2006
DGENRE=R&B
TTITLE0=What is it
TTITLE1=My Heart
TTITLE2=Missed Your Chance
TTITLE3=Im Down
TTITLE4=Good times
TTITLE5=Girlfriend
TTITLE6=Heaven
TTITLE7=Be the one
TTITLE8=Gone
TTITLE9=Bad times
TTITLE10=Rather be Alone
TTITLE11=Pleasure is pain
TTITLE12=Patiently Waiting
TTITLE13=Summer Star
TTITLE14=Be the one
EXTD=
EXTT0=
EXTT1=
EXTT2=
EXTT3=
EXTT4=
EXTT5=
EXTT6=
EXTT7=
EXTT8=
EXTT9=
EXTT10=
EXTT11=
EXTT12=
EXTT13=
EXTT14=
PLAYORDER=
